<?xml version="1.0" standalone="no"?><!DOCTYPE svg PUBLIC "-//W3C//DTD SVG 1.1//EN" "http://www.w3.org/Graphics/SVG/1.1/DTD/svg11.dtd"><svg t="1583473074278" class="icon" viewBox="0 0 1024 1024" version="1.1" xmlns="http://www.w3.org/2000/svg" p-id="25607" xmlns:xlink="http://www.w3.org/1999/xlink" width="200" height="200"><defs><style type="text/css"></style></defs><path d="M256 96v192l-160 48L208 448 128 608h160v320h64v-292.864c41.504 17.984 85.12 36.48 160.128 66.368 0 0.864-0.128 1.6-0.128 2.496 0 71.36 22.4 129.504 63.36 168C616.256 910.624 673.28 928 736 928v-64c-51.264 0-90.24-13.632-116.864-38.496-22.752-21.504-38.144-52.64-42.144-98.016 42.144 15.872 80 29.248 106.24 36.384 9.152 2.368 18.528 3.616 27.776 3.616 58.24 0 114.624-46.496 125.248-105.504L864 512l-96 64c-150.016 0-185.6-96-185.6-96 11.2-27.008 34.464-46.112 61.472-60.128L672 448v-40.384c6.016-2.112 12-3.84 18.016-5.6L736 448v-56.992c1.888-0.384 4-0.896 5.888-1.12L800 448v-64l96 64V292.864c0-47.232-32-90.752-78.4-99.232A95.36 95.36 0 0 0 800 192c-25.6 0-48.512 10.752-65.76 27.264L688 96 640 224h-192z m64 119.488l92.48 61.76 16.16 10.752h328.864l19.008-20.992a31.84 31.84 0 0 1 29.504-10.496c14.624 2.752 25.984 18.624 25.984 36.352V320h-12.64l-0.48-0.256L800 320h-0.992c-22.624 0.384-222.016 7.36-275.648 135.264l-9.728 23.232 8.736 23.616C541.376 553.376 614.4 640 768 640h7.264l-2.016 10.88c-4.992 28-34.112 52.608-62.24 52.608-3.872 0-7.648-0.48-11.136-1.504-98.624-26.496-383.232-151.36-386.112-152.608L301.504 544H231.488l33.76-67.36 20.64-41.28-68.896-68.864 57.504-17.12 45.504-13.76zM416 320s7.36 64 64 64 96-64 96-64z" p-id="25608" fill="#2c2c2c"></path></svg>